<svg
	id="avatar" viewbox="0 0 4 4">

		
										<rect
			x="0" y="0" width="1" height="1" fill="rgb(225,40,239)"/>

										<rect
			x="3" y="0" width="1" height="1" fill="rgb(225,40,239)"/>

										<rect
			x="1" y="0" width="1" height="1" fill="rgb(115,112,112)"/>

										<rect
			x="2" y="0" width="1" height="1" fill="rgb(115,112,112)"/>

				
			
										<rect
			x="0" y="1" width="1" height="1" fill="rgb(115,112,112)"/>

										<rect
			x="3" y="1" width="1" height="1" fill="rgb(115,112,112)"/>

										<rect
			x="1" y="1" width="1" height="1" fill="rgb(225,40,239)"/>

										<rect
			x="2" y="1" width="1" height="1" fill="rgb(225,40,239)"/>

				
			
										<rect
			x="0" y="2" width="1" height="1" fill="rgb(225,40,239)"/>

										<rect
			x="3" y="2" width="1" height="1" fill="rgb(225,40,239)"/>

										<rect
			x="1" y="2" width="1" height="1" fill="rgb(115,112,112)"/>

										<rect
			x="2" y="2" width="1" height="1" fill="rgb(115,112,112)"/>

				
			
										<rect
			x="0" y="3" width="1" height="1" fill="rgb(225,40,239)"/>

										<rect
			x="3" y="3" width="1" height="1" fill="rgb(225,40,239)"/>

										<rect
			x="1" y="3" width="1" height="1" fill="rgb(115,112,112)"/>

										<rect
			x="2" y="3" width="1" height="1" fill="rgb(115,112,112)"/>

				
			</svg>
