<svg
	xmlns="http://www.w3.org/2000/svg" id="avatar" viewBox="0 0 4 4">

		
										<rect
			x="0" y="0" width="1" height="1" fill="rgb(195,48,105)"/>

										<rect
			x="3" y="0" width="1" height="1" fill="rgb(195,48,105)"/>

										<rect
			x="1" y="0" width="1" height="1" fill="rgb(6,74,81)"/>

										<rect
			x="2" y="0" width="1" height="1" fill="rgb(6,74,81)"/>

				
			
										<rect
			x="0" y="1" width="1" height="1" fill="rgb(195,48,105)"/>

										<rect
			x="3" y="1" width="1" height="1" fill="rgb(195,48,105)"/>

										<rect
			x="1" y="1" width="1" height="1" fill="rgb(195,48,105)"/>

										<rect
			x="2" y="1" width="1" height="1" fill="rgb(195,48,105)"/>

				
			
										<rect
			x="0" y="2" width="1" height="1" fill="rgb(195,48,105)"/>

										<rect
			x="3" y="2" width="1" height="1" fill="rgb(195,48,105)"/>

										<rect
			x="1" y="2" width="1" height="1" fill="rgb(6,74,81)"/>

										<rect
			x="2" y="2" width="1" height="1" fill="rgb(6,74,81)"/>

				
			
										<rect
			x="0" y="3" width="1" height="1" fill="rgb(195,48,105)"/>

										<rect
			x="3" y="3" width="1" height="1" fill="rgb(195,48,105)"/>

										<rect
			x="1" y="3" width="1" height="1" fill="rgb(195,48,105)"/>

										<rect
			x="2" y="3" width="1" height="1" fill="rgb(195,48,105)"/>

				
			</svg>
