<svg
	id="avatar" viewbox="0 0 4 4">

		
										<rect
			x="0" y="0" width="1" height="1" fill="rgb(51,101,121)"/>

										<rect
			x="3" y="0" width="1" height="1" fill="rgb(51,101,121)"/>

										<rect
			x="1" y="0" width="1" height="1" fill="rgb(51,101,121)"/>

										<rect
			x="2" y="0" width="1" height="1" fill="rgb(51,101,121)"/>

				
			
										<rect
			x="0" y="1" width="1" height="1" fill="rgb(51,101,121)"/>

										<rect
			x="3" y="1" width="1" height="1" fill="rgb(51,101,121)"/>

										<rect
			x="1" y="1" width="1" height="1" fill="rgb(56,237,134)"/>

										<rect
			x="2" y="1" width="1" height="1" fill="rgb(56,237,134)"/>

				
			
										<rect
			x="0" y="2" width="1" height="1" fill="rgb(56,237,134)"/>

										<rect
			x="3" y="2" width="1" height="1" fill="rgb(56,237,134)"/>

										<rect
			x="1" y="2" width="1" height="1" fill="rgb(56,237,134)"/>

										<rect
			x="2" y="2" width="1" height="1" fill="rgb(56,237,134)"/>

				
			
										<rect
			x="0" y="3" width="1" height="1" fill="rgb(56,237,134)"/>

										<rect
			x="3" y="3" width="1" height="1" fill="rgb(56,237,134)"/>

										<rect
			x="1" y="3" width="1" height="1" fill="rgb(51,101,121)"/>

										<rect
			x="2" y="3" width="1" height="1" fill="rgb(51,101,121)"/>

				
			</svg>
